<svg width="23" height="22" viewBox="0 0 23 22" fill="none" xmlns="http://www.w3.org/2000/svg">
<g id="Iconly/Light/Chat">
<g id="Chat">
<path id="Stroke 4" fill-rule="evenodd" clip-rule="evenodd" d="M17.4821 17.4807C14.6806 20.2825 10.5323 20.8878 7.13753 19.3179C6.63638 19.1161 6.22551 18.953 5.8349 18.953C4.74693 18.9595 3.39271 20.0144 2.68889 19.3114C1.98507 18.6075 3.0408 17.2522 3.0408 16.1577C3.0408 15.767 2.88419 15.3635 2.68244 14.8614C1.11174 11.4672 1.71791 7.31747 4.51938 4.51662C8.09561 0.939073 13.9058 0.939073 17.4821 4.51569C21.0647 8.09877 21.0583 13.9041 17.4821 17.4807Z" stroke="#94A3B8" stroke-width="1.5" stroke-linecap="round" stroke-linejoin="round"/>
<path id="Stroke 11" d="M14.6111 11.3786H14.6193" stroke="#94A3B8" stroke-width="2" stroke-linecap="round" stroke-linejoin="round"/>
<path id="Stroke 13" d="M10.9362 11.3786H10.9445" stroke="#94A3B8" stroke-width="2" stroke-linecap="round" stroke-linejoin="round"/>
<path id="Stroke 15" d="M7.26128 11.3786H7.26953" stroke="#94A3B8" stroke-width="2" stroke-linecap="round" stroke-linejoin="round"/>
</g>
<circle id="Ellipse 6" cx="19" cy="5" r="3.5" fill="#EF5DA8" stroke="white"/>
</g>
</svg>
